<svg xmlns="http://www.w3.org/2000/svg" viewBox="0 0 120 120">
  <rect x="0" y="0" width="120" height="120" rx="28" fill="#2563eb" />
  <g transform="translate(21.6, 21.6) scale(3.2)" fill="none" stroke="#ffffff" stroke-width="2" stroke-linecap="round" stroke-linejoin="round">
    <path d="M2 22h20"/>
    <path d="M6.36 17.4 4 17l-2-4 1.1-.55a2 2 0 0 1 1.8 0l.17.1a2 2 0 0 0 1.8 0L8 12l5-5 1.5-1.5a2.53 2.53 0 0 1 3.55 0c.98.98.98 2.57 0 3.55l-1.5 1.5-5 5-.32.32a2 2 0 0 0 0 1.8l.1.17a2 2 0 0 1 0 1.8l-.55 1.1L17 20"/>
  </g>
</svg>
